<?xml version="1.0" encoding="utf-8"?>
<!-- Generator: Adobe Illustrator 27.0.1, SVG Export Plug-In . SVG Version: 6.00 Build 0)  -->
<svg version="1.1" xmlns="http://www.w3.org/2000/svg" xmlns:xlink="http://www.w3.org/1999/xlink" x="0px" y="0px"
	 viewBox="0 0 336 336" style="enable-background:new 0 0 336 336;" xml:space="preserve">
<style type="text/css">
	.st0{fill:#FFFFFF;}
</style>
<g id="Layer_2">
</g>
<g id="Layer_1">
	<g>
		<path class="st0" d="M82.9,257.6l4.3,3.6l-17.8,21.4l-4.3-3.6L82.9,257.6z"/>
		<path class="st0" d="M90.1,286.5L90.1,286.5l10.5-15.9l4.3,2.8l-15.2,23.3l-5.3-3.5l4.9-20.1l-0.1,0l-10.7,16.3l-4.3-2.8
			l15.2-23.3l5.4,3.5L90.1,286.5z"/>
		<path class="st0" d="M115.2,285.5c0.1-0.5,0.2-1.1,0.1-1.6c-0.1-0.5-0.2-1-0.4-1.4c-0.2-0.4-0.6-0.8-1.2-1
			c-1.2-0.6-2.4-0.3-3.6,0.9c-1.2,1.1-2.5,3.3-3.9,6.5c-0.7,1.5-1.3,2.9-1.7,4.2s-0.8,2.4-0.9,3.4s-0.1,1.8,0.2,2.5
			c0.2,0.7,0.8,1.2,1.5,1.5c0.3,0.1,0.7,0.2,1.1,0.2c0.4,0,0.9-0.1,1.4-0.3s0.9-0.5,1.4-0.9s0.8-1,1.1-1.6l1.2-2.6l-3.4-1.5l1.7-3.8
			l8.3,3.7l-6.2,13.7l-3.8-1.7l1.1-2.4l-0.1,0c-1.1,0.7-2.1,1.1-3.2,1.1c-1.1,0-2.2-0.2-3.4-0.8c-1.6-0.7-2.7-1.5-3.4-2.5
			c-0.7-1-1.1-2.2-1.2-3.6s0.2-3,0.8-4.7s1.3-3.7,2.3-5.9c1-2.1,1.9-3.9,2.9-5.4s2.1-2.6,3.2-3.4s2.4-1.2,3.7-1.2
			c1.3,0,2.8,0.3,4.5,1c2.8,1.3,4.5,2.9,5.1,4.8c0.6,1.9,0.3,4.2-0.8,6.8l-4.9-2.2C114.9,286.5,115.1,286,115.2,285.5z"/>
		<path class="st0" d="M135.1,285.2c2.2,0.6,3.9,1.7,4.8,3.2c0.9,1.5,1.1,3.4,0.4,5.7c-0.5,1.8-1.3,3.2-2.3,4.1
			c-1,0.9-2.4,1.4-4,1.3l0,0.1c1.3,0.6,2.2,1.3,2.6,2.1c0.4,0.9,0.5,2,0.3,3.6c-0.1,0.5-0.2,1.1-0.3,1.7s-0.3,1.3-0.5,2
			c-0.4,1.4-0.6,2.5-0.7,3.3c-0.1,0.8,0.1,1.4,0.6,1.8l-0.1,0.2l-5.9-1.6c-0.2-0.5-0.2-0.9-0.2-1.4s0.1-1,0.3-1.6l1.3-5.2
			c0.2-1.1,0.2-2-0.1-2.7s-1-1.3-2.1-1.6l-2.9-0.8l-3.2,11.4l-5.4-1.5l7.4-26.8L135.1,285.2z M129.6,296.3c1.3,0.4,2.4,0.3,3.3-0.1
			c0.9-0.4,1.5-1.4,1.9-2.8c0.7-2.5-0.2-4.1-2.7-4.8l-2.6-0.7l-2.2,7.7L129.6,296.3z"/>
		<path class="st0" d="M159.5,294.1l-9.9-1.3l-0.8,6.5l9.3,1.2l-0.6,4.6l-9.3-1.2l-0.9,7.4l10.2,1.3l-0.6,4.6l-15.8-2l3.6-27.6
			l15.4,2L159.5,294.1z"/>
		<path class="st0" d="M171.1,289.6c1.9,0,3.5,0.3,4.7,0.9s2.1,1.5,2.8,2.7c0.7,1.2,1.1,2.6,1.4,4.2c0.3,1.7,0.4,3.5,0.4,5.6
			c0,2.4-0.1,4.6-0.4,6.4s-0.8,3.3-1.5,4.5s-1.7,2.1-2.9,2.7s-2.8,0.9-4.6,0.9l-8.9,0.1l-0.4-27.8L171.1,289.6z M170.4,313.3
			c1,0,1.8-0.2,2.4-0.5c0.6-0.4,1.1-0.9,1.4-1.7s0.6-1.8,0.6-3.1c0.1-1.3,0.1-2.9,0.1-4.8c0-1.6-0.1-3-0.2-4.2s-0.4-2.2-0.7-3
			s-0.8-1.4-1.5-1.8c-0.6-0.4-1.5-0.6-2.6-0.6l-2.4,0l0.3,19.6L170.4,313.3z"/>
		<path class="st0" d="M183.1,288.9l5.6-0.7l3.5,27.6l-5.6,0.7L183.1,288.9z"/>
		<path class="st0" d="M207.9,288.8l-9.7,2.2l1.5,6.4l9.1-2.1l1,4.5l-9.1,2.1l1.7,7.3l10.1-2.3l1,4.5L198,315l-6.3-27.1l15.2-3.5
			L207.9,288.8z"/>
		<path class="st0" d="M227.8,296.9L227.8,296.9l-6.9-17.8l4.8-1.9l10.2,25.9l-5.9,2.3l-13.5-15.6l-0.1,0l7.1,18.1l-4.8,1.9
			L208.5,284l6-2.4L227.8,296.9z"/>
		<path class="st0" d="M244.1,272l-5.3,3l11.5,20.2l-4.9,2.8L234,277.8l-5.3,3l-2.3-4l15.4-8.8L244.1,272z"/>
		<path class="st0" d="M258.4,280.5c0.4,0.5,0.8,1,1.2,1.3s0.8,0.6,1.3,0.7s0.9,0.1,1.4,0c0.5-0.1,1-0.4,1.6-0.9
			c0.7-0.5,1.1-1.2,1.3-2.1s0-1.8-0.8-2.7c-0.4-0.5-0.8-0.9-1.2-1.1s-0.9-0.4-1.4-0.5s-1.1,0-1.8,0.1c-0.7,0.1-1.5,0.4-2.4,0.7
			c-1.2,0.4-2.4,0.7-3.4,0.9c-1,0.2-2,0.2-2.9,0c-0.9-0.1-1.7-0.5-2.5-1c-0.8-0.5-1.5-1.2-2.2-2.1c-1.7-2.2-2.3-4.3-1.9-6.3
			c0.4-2,1.6-3.8,3.8-5.5c1-0.8,2-1.4,3-1.8s2-0.6,3-0.6c1,0,1.9,0.3,2.9,0.8c0.9,0.5,1.8,1.3,2.6,2.3l0.5,0.6l-4.3,3.3
			c-0.8-1-1.6-1.7-2.4-2s-1.6-0.1-2.5,0.6c-0.5,0.4-0.9,0.8-1.1,1.2s-0.3,0.8-0.4,1.2c0,0.4,0.1,0.8,0.2,1.1s0.4,0.7,0.6,1
			c0.5,0.7,1.1,1.1,1.8,1.4s1.6,0.2,2.8-0.1l4.6-1.1c1.1-0.3,2.1-0.4,3-0.4c0.8,0,1.6,0.1,2.3,0.3c0.7,0.2,1.3,0.6,1.8,1
			s1.1,1,1.6,1.7c1.8,2.3,2.4,4.5,1.9,6.6c-0.5,2.1-2,4.1-4.4,5.9c-2.5,1.9-4.7,2.8-6.7,2.5c-1.9-0.3-3.7-1.4-5.2-3.5l-0.7-0.9
			l4.4-3.4L258.4,280.5z"/>
	</g>
	<g>
		<path class="st0" d="M62.4,71.9l-3.8,3.7L56.2,73l0.3-0.3c1.3-1.3,2.1-2.5,2.3-3.7c0.3-1.2,0-2.5-0.9-3.7l2.8-2.8l18.5,19
			l-3.9,3.8L62.4,71.9z"/>
		<path class="st0" d="M73,63.3c-0.9-1.4-1.6-2.8-1.9-4.2s-0.3-2.7,0.1-4s1.4-2.5,3-3.7c1.3-1,2.5-1.6,3.7-1.9
			c1.1-0.3,2.3-0.2,3.4,0.3s2.3,1.2,3.5,2.4c1.2,1.2,2.5,2.7,3.9,4.6c1.1,1.5,2.1,2.9,3,4.4c0.9,1.4,1.6,2.8,1.9,4.2
			c0.3,1.4,0.3,2.7-0.1,4c-0.4,1.3-1.4,2.5-3,3.7c-1.3,1-2.5,1.6-3.6,1.9c-1.1,0.3-2.2,0.2-3.4-0.2c-1.1-0.4-2.3-1.2-3.5-2.4
			c-1.2-1.2-2.5-2.7-3.9-4.6C74.9,66.2,73.9,64.8,73,63.3z M83.6,68.6c0.7,0.8,1.3,1.4,1.9,1.7c0.6,0.4,1,0.5,1.5,0.5
			s0.9-0.2,1.3-0.6c0.5-0.4,0.8-0.8,0.9-1.2c0.1-0.5,0.1-1-0.2-1.7c-0.2-0.7-0.7-1.5-1.3-2.5c-0.6-1-1.4-2.1-2.5-3.5L83.6,59
			c-1-1.3-1.9-2.4-2.6-3.2s-1.3-1.4-1.9-1.7c-0.6-0.4-1-0.5-1.5-0.5c-0.4,0-0.9,0.2-1.3,0.6c-0.5,0.4-0.8,0.8-0.9,1.2
			c-0.1,0.5-0.1,1,0.2,1.7s0.7,1.5,1.3,2.5c0.6,1,1.4,2.1,2.5,3.5l1.7,2.3C82.1,66.8,82.9,67.8,83.6,68.6z"/>
		<path class="st0" d="M88.7,51.8c-0.7-1.5-1.2-3-1.3-4.4c-0.2-1.4,0.1-2.7,0.6-4c0.6-1.2,1.7-2.3,3.5-3.3c1.4-0.8,2.7-1.2,3.9-1.4
			c1.2-0.1,2.3,0.1,3.3,0.7c1.1,0.6,2.1,1.5,3.1,2.8s2.1,3,3.3,5c0.9,1.6,1.7,3.2,2.4,4.7c0.7,1.5,1.2,3,1.3,4.4
			c0.2,1.4-0.1,2.7-0.7,3.9c-0.6,1.2-1.8,2.3-3.5,3.2c-1.4,0.8-2.7,1.3-3.8,1.4c-1.2,0.2-2.2-0.1-3.3-0.6c-1.1-0.6-2.1-1.5-3.1-2.8
			s-2.1-3-3.3-5C90.3,54.9,89.4,53.3,88.7,51.8z M98.6,58.4c0.6,0.9,1.1,1.5,1.6,2s1,0.6,1.4,0.7c0.4,0,0.9-0.1,1.4-0.4
			c0.5-0.3,0.9-0.7,1.1-1.1c0.2-0.4,0.2-1,0.1-1.7c-0.2-0.7-0.5-1.6-1-2.6s-1.2-2.3-2-3.8l-1.4-2.5c-0.8-1.5-1.5-2.6-2.1-3.5
			c-0.6-0.9-1.1-1.5-1.6-2s-1-0.6-1.4-0.7c-0.4,0-0.9,0.1-1.4,0.4c-0.5,0.3-0.9,0.7-1.1,1.1c-0.2,0.4-0.2,1-0.1,1.7
			c0.2,0.7,0.5,1.6,1,2.6s1.2,2.3,2,3.8l1.4,2.5C97.3,56.4,98,57.5,98.6,58.4z"/>
		<path class="st0" d="M104.8,37.2c-0.2-0.9-0.1-1.7,0-2.4c0.2-0.7,0.6-1.3,1.2-1.8c0.6-0.5,1.4-1,2.5-1.3c1.1-0.4,2.1-0.6,2.8-0.5
			c0.8,0,1.5,0.3,2.1,0.7c0.6,0.4,1.1,1,1.6,1.8c0.4,0.8,0.9,1.8,1.3,2.9c0.4,1.1,0.7,2.1,0.8,3c0.2,0.9,0.1,1.7,0,2.4
			c-0.2,0.7-0.6,1.3-1.2,1.8c-0.6,0.5-1.4,1-2.6,1.4c-1.1,0.4-2,0.6-2.8,0.5c-0.8,0-1.5-0.2-2.1-0.7s-1.1-1-1.6-1.8
			s-0.9-1.8-1.3-2.9C105.3,39.1,105,38.1,104.8,37.2z M110.8,41.8c0.4,0.6,1,0.8,1.7,0.6s1-0.8,0.9-1.5c-0.1-0.8-0.4-1.8-0.9-3.2
			c-0.4-1.3-0.9-2.2-1.3-2.8s-1-0.8-1.7-0.5c-0.7,0.2-1,0.7-0.9,1.5c0.1,0.7,0.3,1.7,0.8,3C109.9,40.2,110.3,41.2,110.8,41.8z
			 M124.6,25.2L119.7,57l-3.2,1.1l4.9-31.7L124.6,25.2z M124.1,43.9c-0.2-0.9-0.1-1.7,0-2.4c0.2-0.7,0.6-1.3,1.2-1.8
			c0.6-0.5,1.4-1,2.5-1.3c1.1-0.4,2.1-0.6,2.8-0.5c0.8,0,1.5,0.3,2.1,0.7s1.1,1,1.6,1.8c0.4,0.8,0.9,1.8,1.3,2.9
			c0.4,1.2,0.7,2.2,0.9,3.1s0.1,1.7-0.1,2.4c-0.2,0.7-0.6,1.3-1.2,1.8c-0.6,0.5-1.4,0.9-2.6,1.3c-1.1,0.4-2,0.6-2.8,0.6
			c-0.8,0-1.5-0.2-2.1-0.6c-0.6-0.4-1.1-1-1.5-1.8s-0.9-1.8-1.3-2.9C124.6,45.8,124.3,44.8,124.1,43.9z M130,48.5
			c0.4,0.6,1,0.8,1.7,0.6c0.7-0.2,1-0.8,0.9-1.5c-0.1-0.8-0.4-1.8-0.9-3.3c-0.4-1.3-0.9-2.2-1.3-2.8s-1-0.8-1.7-0.5
			c-0.7,0.2-1,0.7-0.9,1.5c0.1,0.7,0.3,1.7,0.8,3C129.1,46.9,129.6,47.9,130,48.5z"/>
		<path class="st0" d="M160,38.2L160,38.2l-1.6-18.3l4.9-0.5l2.4,26.7l-6.1,0.6l-8.3-18.1l-0.1,0l1.7,18.7l-4.9,0.5l-2.4-26.7
			l6.2-0.6L160,38.2z"/>
		<path class="st0" d="M182.1,20.1l5.4,27.2L182,47l-0.9-5.7l-7.1-0.4l-1.6,5.6l-5.6-0.3l8.7-26.3L182.1,20.1z M180.4,36.8
			l-1.9-12.2h-0.1l-3.3,11.9L180.4,36.8z"/>
		<path class="st0" d="M206.2,28.3l-5.8-1.1l-4.2,22l-5.3-1l4.2-22l-5.8-1.1l0.8-4.4L207,24L206.2,28.3z"/>
		<path class="st0" d="M210.8,44.7c-0.2,0.6-0.4,1.2-0.5,1.8c-0.1,0.6-0.1,1.1,0,1.5s0.3,0.9,0.6,1.2c0.3,0.4,0.8,0.6,1.4,0.8
			c0.6,0.2,1.1,0.3,1.6,0.2s0.9-0.3,1.2-0.6s0.7-0.7,0.9-1.2c0.3-0.5,0.5-1.1,0.7-1.7l6-17.7l5.1,1.7l-6,17.7
			c-0.5,1.6-1.2,2.9-2,3.8s-1.7,1.5-2.7,1.9s-2,0.5-3,0.4c-1-0.1-2.1-0.3-3.1-0.7c-1-0.3-2-0.8-2.9-1.3c-0.9-0.5-1.6-1.2-2.2-2
			c-0.6-0.8-0.9-1.9-1-3.1s0.1-2.7,0.7-4.4l6-17.7l5.1,1.7L210.8,44.7z"/>
		<path class="st0" d="M242.8,37.8c2,1,3.3,2.3,3.9,3.9c0.6,1.6,0.4,3.4-0.7,5.5c-0.8,1.6-1.8,2.7-3,3.4c-1.2,0.7-2.5,0.8-4,0.4
			l0,0.1c1.1,0.8,1.8,1.6,2,2.5s0.1,2-0.5,3.4c-0.2,0.5-0.4,1-0.6,1.5s-0.5,1.1-0.8,1.8c-0.6,1.3-1,2.3-1.3,3
			c-0.2,0.7-0.2,1.3,0.2,1.8l-0.1,0.2l-5.2-2.7c-0.1-0.5,0-0.9,0.1-1.4s0.3-0.9,0.6-1.4l2.2-4.6c0.4-1,0.6-1.8,0.4-2.6
			c-0.1-0.8-0.7-1.4-1.7-1.9l-2.6-1.3l-5.2,10.1l-4.8-2.5l12.3-23.8L242.8,37.8z M235.3,47.2c1.2,0.6,2.2,0.8,3.1,0.6
			c0.9-0.2,1.7-1,2.4-2.3c1.1-2.2,0.6-3.9-1.6-5l-2.3-1.2l-3.5,6.9L235.3,47.2z"/>
		<path class="st0" d="M264.6,51.6l-10,25.9l-4.6-3.3l2.3-5.3l-5.8-4.2l-4.3,3.9l-4.6-3.3l21.5-17.6L264.6,51.6z M254.2,64.8l5-11.3
			l-0.1,0l-9.2,8.2L254.2,64.8z"/>
		<path class="st0" d="M273.8,59l3.9,3.7l-15.5,16.2l6.9,6.6l-3.1,3.2l-10.8-10.4L273.8,59z"/>
	</g>
	<g>
		<path class="st0" d="M169,7.2c43,0,83.4,16.7,113.8,47.2c30.4,30.4,47.2,70.8,47.2,113.8s-16.7,83.4-47.2,113.8
			c-30.4,30.4-70.8,47.2-113.8,47.2c-43,0-83.4-16.7-113.8-47.2C24.7,251.7,8,211.2,8,168.2S24.7,84.8,55.1,54.4
			C85.5,24,126,7.2,169,7.2 M169,2.2C77.3,2.2,3,76.5,3,168.2s74.3,166,166,166s166-74.3,166-166S260.7,2.2,169,2.2L169,2.2z"/>
	</g>
	<path class="st0" d="M81.9,97.5c-12.7,13.9-18,32.3-13.3,50.5s19.1,33.7,36.9,39.7c3,3.6,6.2,7.1,9.6,10.4
		c-4.2-1.8-8.5-3.3-12.7-4.3c-10-6.6-22.3-9.7-34.2-8.4c-14.7,1.6-28.6,10-36.9,22.2c5.7-3.4,13.8-1.1,19.7,2.1
		c5.9,3.2,11.2,7.7,17.5,9.7c6.8,2.2,14.2,1.3,20.9-1.1s12.7-6.4,18.5-10.5c-18.5-9.3-41.1-12.3-61.1-6.7c20.2-7.7,41.4-8.1,62.2-2
		l0,0c5.3,2.1,10.4,4.6,15.4,7.5c20.1,16.8,44.6,28.9,70,34.4c-2.1-4.1-4.1-9.1-4-13.7c-4.2-0.9-8.6-1.8-12.9-2.4
		c-11-1.7-21.3-6.5-30.9-12c-17.1-9.7-33.2-21.7-45.3-37.2s-20.2-34.8-19.7-54.5c4.6,22.3,16.3,42.9,32.1,59.4
		c4.4-14.3,2.1-35-7.6-46.4c-5-5.9-11.4-10.3-16.6-16C84.4,112.6,80.4,105,81.9,97.5z"/>
	<path class="st0" d="M255,97.5c12.7,13.9,18,32.3,13.3,50.5c-4.7,18.3-19.1,33.7-36.9,39.7c-3,3.6-6.2,7.1-9.6,10.4
		c4.2-1.8,8.5-3.3,12.7-4.3c10-6.6,22.3-9.7,34.2-8.4c14.7,1.6,28.6,10,36.9,22.2c-5.7-3.4-13.8-1.1-19.7,2.1
		c-5.9,3.2-11.2,7.7-17.5,9.7c-6.8,2.2-14.2,1.3-20.9-1.1c-6.7-2.4-12.7-6.4-18.5-10.5c18.5-9.3,41.1-12.3,61.1-6.7
		c-20.2-7.7-41.4-8.1-62.2-2l0,0c-5.3,2.1-10.4,4.6-15.4,7.5c-20.1,16.8-44.6,28.9-70,34.4c2.1-4.1,4.1-9.1,4-13.7
		c4.2-0.9,8.6-1.8,12.9-2.4c11-1.7,21.3-6.5,30.9-12c17.1-9.7,33.2-21.7,45.3-37.2c12.1-15.5,20.2-34.8,19.7-54.5
		c-4.6,22.3-16.3,42.9-32.1,59.4c-4.4-14.3-2.1-35,7.6-46.4c5-5.9,11.4-10.3,16.6-16C252.5,112.6,256.5,105,255,97.5z"/>
	<path class="st0" d="M159.6,205.9c-13.4-8.9-20.7-25.7-19.3-41.8s10.3-31.5,23.4-41.1c7.9-5.8,17.2-9.2,27.2-9.4
		c-6.1,2.2-9.6,9.1-9.7,15.5s2.5,12.6,5.3,18.5c2.8,5.8,5.7,11.7,6.5,18.2c0.8,7.1-1.2,14.4-4.8,20.6s-12.3,14.3-17.9,18.8
		c-10-22.6-10-49.7,0.2-72.4C154.9,153.1,151.1,182,159.6,205.9z"/>
</g>
</svg>
