<?xml version="1.0" encoding="utf-8"?>
<!-- Generator: Adobe Illustrator 27.0.1, SVG Export Plug-In . SVG Version: 6.00 Build 0)  -->
<svg version="1.1" id="Layer_1" xmlns="http://www.w3.org/2000/svg" xmlns:xlink="http://www.w3.org/1999/xlink" x="0px" y="0px"
	 viewBox="0 0 336 336" style="enable-background:new 0 0 336 336;" xml:space="preserve">
<style type="text/css">
	.st0{fill:#FFFFFF;stroke:#272727;stroke-width:2;stroke-miterlimit:10;}
	.st1{fill:#272727;}
	.st2{fill-rule:evenodd;clip-rule:evenodd;fill:#272727;}
</style>
<g id="Layer_2_00000102512549769236901490000015588240569146538390_">
	<circle class="st0" cx="168.98" cy="168.22" r="165.78"/>
	<path class="st1" d="M8.26,209c18.17,71.84,83.23,125,160.72,125s142.55-53.16,160.72-125H8.26z"/>
</g>
<g id="Layer_1_00000082332125272379458610000007082720411671958201_">
	<g>
		<polygon class="st2" points="79.13,168.37 108.54,168.37 108.54,157.32 68.5,157.32 68.08,157.31 68.08,196.7 78.82,196.7 
			78.82,168.54 		"/>
		<path class="st2" d="M68.08,118.65l80.38-0.01l0.18-0.08c17.35,0.16,31.36,14.23,31.36,31.56c0,17.36-14.06,31.44-31.45,31.56
			l-0.27-0.01l-19.67-0.02V141.8h11.1v29.01l0.93-0.02h7.66l0.43-0.01c11.23-0.23,20.27-9.37,20.27-20.62
			c0-11.31-9.13-20.49-20.45-20.62H79.08l-0.26,0.01v12.04l0.01,0.22l29.64,0.01l0.03,11.07l-40.29-0.01l-0.12-0.01L68.08,118.65
			L68.08,118.65z"/>
		<polygon class="st2" points="229.07,104.15 277.63,186 284.56,174.52 241.53,104.15 		"/>
		<polygon class="st2" points="179.24,196.71 229.03,113.75 270.1,181.71 213.49,181.71 213.49,171.1 250.24,171.1 229.03,135.72 
			194.27,196.71 		"/>
		<polygon class="st2" points="277.63,186 213.49,185.99 213.49,196.71 271.33,196.69 271.41,196.42 		"/>
		<path class="st2" d="M112.89,185.66l0.04-43.86h11.1v43.86v0.09h24.26l0.25,0.01c19.66-0.14,35.55-16.06,35.55-35.68
			c0-19.58-15.84-35.49-35.46-35.68l-0.34,0.01H64.11v82.29H53.38v-92.98l94.92-0.01h0.43c22.57,0.21,41.31,15.89,45.37,37.26
			l22.53-36.83h12.46l-38.64,64.72l-3.75,6.33c-8.31,12.17-22.1,21.25-37.97,21.39h-0.43h-35.4v-10.92H112.89z"/>
	</g>
	<g>
		<path class="st1" d="M81.07,52.03l4.92,24.29h0.1l4.96-24.29h10.27v34.41h-6.37V58.98h-0.1l-6.13,27.47h-5.4l-6.11-27.47h-0.1
			v27.47h-6.37V52.04h10.32v-0.01H81.07z"/>
		<path class="st1" d="M121.56,52.03l9.11,34.41h-7.23l-1.59-7.28h-9.16l-1.59,7.28h-7.23l9.11-34.41
			C112.98,52.03,121.56,52.03,121.56,52.03z M120.63,73.49l-3.32-15.47h-0.1l-3.32,15.47H120.63z"/>
		<path class="st1" d="M144.77,52.03c2.41,0,4.35,0.39,5.83,1.18s2.63,1.92,3.44,3.37c0.82,1.46,1.37,3.22,1.67,5.28
			c0.28,2.06,0.44,4.35,0.44,6.89c0,3.02-0.19,5.64-0.56,7.88s-1.01,4.08-1.91,5.52s-2.1,2.52-3.62,3.23
			c-1.51,0.71-3.42,1.06-5.73,1.06H133.4V52.06h11.37L144.77,52.03L144.77,52.03z M143.43,81.35c1.22,0,2.2-0.21,2.94-0.62
			c0.73-0.42,1.33-1.11,1.75-2.07c0.44-0.96,0.72-2.24,0.87-3.8c0.14-1.58,0.22-3.54,0.22-5.88c0-1.96-0.07-3.68-0.2-5.16
			c-0.13-1.48-0.39-2.71-0.8-3.68c-0.41-0.98-1-1.72-1.79-2.21c-0.79-0.49-1.84-0.75-3.16-0.75h-2.94v24.19h3.1L143.43,81.35
			L143.43,81.35z"/>
		<path class="st1" d="M179.96,57.72h-12.29v8.1h11.57v5.69h-11.57v9.25h12.78v5.69h-19.71V52.03h19.23v5.69H179.96z"/>
		<path class="st1" d="M195.82,52.03h6.94v34.41h-6.94V52.03z"/>
		<path class="st1" d="M224.3,75.6h0.1V52.03h6.37v34.41h-7.9l-8.48-24.1h-0.1v24.1h-6.37V52.03h8L224.3,75.6z"/>
		<path class="st1" d="M260.63,52.03l9.11,34.41h-7.23l-1.59-7.28h-9.16l-1.59,7.28h-7.23l9.11-34.41
			C252.05,52.03,260.63,52.03,260.63,52.03z M259.72,73.49l-3.33-15.47h-0.1l-3.32,15.47H259.72z"/>
	</g>
	<g>
		<path class="st0" d="M65.11,217.63c2.89,0,5.14,0.73,6.75,2.19s2.41,3.69,2.41,6.67c0,2.31-0.47,4.2-1.4,5.67
			c-0.93,1.46-2.38,2.4-4.34,2.82v0.1c1.73,0.25,3,0.82,3.8,1.69s1.3,2.27,1.49,4.2c0.07,0.65,0.11,1.34,0.14,2.09
			s0.07,1.6,0.1,2.53c0.07,1.83,0.16,3.23,0.28,4.2c0.2,0.96,0.61,1.62,1.25,1.97v0.28h-7.52c-0.35-0.48-0.58-1.04-0.68-1.67
			c-0.1-0.62-0.16-1.28-0.2-1.95l-0.2-6.61c-0.07-1.35-0.41-2.41-1.01-3.18c-0.61-0.77-1.64-1.16-3.08-1.16h-3.71v14.55h-6.91
			v-34.41H65.1L65.11,217.63L65.11,217.63z M62.13,232.66c1.67,0,2.96-0.39,3.86-1.18c0.9-0.79,1.35-2.11,1.35-3.98
			c0-3.18-1.61-4.77-4.82-4.77h-3.28v9.93H62.13L62.13,232.66z"/>
		<path class="st0" d="M98.32,223.31H86.03v8.1H97.6v5.69H86.03v9.26h12.78v5.69H79.09v-34.41h19.23
			C98.32,217.64,98.32,223.31,98.32,223.31z"/>
		<path class="st0" d="M117.34,225.87c-0.14-0.68-0.37-1.29-0.7-1.85c-0.32-0.56-0.73-1.03-1.23-1.4c-0.49-0.37-1.1-0.56-1.81-0.56
			c-1.67,0-2.87,0.93-3.62,2.79c-0.73,1.86-1.11,4.95-1.11,9.25c0,2.06,0.07,3.92,0.2,5.59c0.13,1.68,0.36,3.09,0.7,4.26
			s0.82,2.07,1.45,2.7c0.62,0.62,1.44,0.94,2.43,0.94c0.42,0,0.88-0.11,1.37-0.34c0.49-0.22,0.96-0.56,1.4-1.01s0.8-1.02,1.08-1.71
			s0.44-1.5,0.44-2.43v-3.52h-4.58v-5.11h11.23v18.55h-5.11v-3.18h-0.1c-0.83,1.35-1.84,2.3-3.01,2.87
			c-1.17,0.56-2.58,0.84-4.22,0.84c-2.13,0-3.85-0.37-5.18-1.11c-1.34-0.73-2.38-1.88-3.13-3.42c-0.76-1.55-1.26-3.44-1.52-5.71
			s-0.38-4.89-0.38-7.88c0-2.89,0.19-5.42,0.56-7.62c0.37-2.18,1.01-4.01,1.91-5.47s2.09-2.56,3.56-3.3
			c1.48-0.73,3.32-1.11,5.54-1.11c3.79,0,6.52,0.94,8.2,2.82c1.67,1.88,2.51,4.57,2.51,8.08h-6.65
			C117.56,227.2,117.48,226.55,117.34,225.87z"/>
		<path class="st0" d="M129.41,217.63h6.94v34.41h-6.94V217.63z"/>
		<path class="st0" d="M147.1,242.3c0,0.8,0.07,1.53,0.2,2.19s0.37,1.22,0.72,1.67s0.82,0.8,1.42,1.06
			c0.59,0.26,1.34,0.38,2.25,0.38c1.06,0,2.02-0.35,2.87-1.04c0.85-0.69,1.28-1.76,1.28-3.2c0-0.77-0.11-1.44-0.32-2.01
			c-0.21-0.56-0.56-1.06-1.04-1.52c-0.48-0.45-1.12-0.85-1.91-1.23c-0.79-0.37-1.76-0.75-2.91-1.13c-1.55-0.52-2.87-1.07-4-1.69
			s-2.06-1.33-2.82-2.15s-1.31-1.76-1.67-2.84c-0.35-1.07-0.53-2.32-0.53-3.74c0-3.41,0.94-5.94,2.85-7.62
			c1.9-1.67,4.49-2.51,7.8-2.51c1.55,0,2.97,0.16,4.26,0.5c1.3,0.34,2.42,0.89,3.37,1.64c0.94,0.76,1.69,1.72,2.21,2.89
			c0.53,1.17,0.8,2.58,0.8,4.22v0.96h-6.65c0-1.64-0.28-2.9-0.87-3.78c-0.58-0.89-1.55-1.33-2.89-1.33c-0.77,0-1.41,0.11-1.93,0.34
			c-0.52,0.23-0.92,0.53-1.23,0.89c-0.31,0.37-0.52,0.8-0.62,1.28c-0.11,0.48-0.16,0.98-0.16,1.49c0,1.06,0.23,1.95,0.68,2.67
			s1.41,1.39,2.89,2.01l5.35,2.31c1.31,0.58,2.39,1.18,3.23,1.81c0.83,0.62,1.5,1.3,2.01,2.03c0.49,0.72,0.84,1.51,1.04,2.39
			s0.28,1.83,0.28,2.89c0,3.63-1.05,6.28-3.16,7.93c-2.1,1.65-5.04,2.48-8.8,2.48c-3.92,0-6.73-0.85-8.4-2.55
			c-1.69-1.7-2.53-4.14-2.53-7.32v-1.4h6.94v1h-0.01V242.3z"/>
		<path class="st0" d="M186.66,223.31h-7.52v28.72h-6.94v-28.72h-7.52v-5.69h21.98L186.66,223.31L186.66,223.31z"/>
		<path class="st0" d="M208.88,223.31h-12.29v8.1h11.57v5.69h-11.57v9.26h12.78v5.69h-19.71v-34.41h19.23L208.88,223.31
			L208.88,223.31z"/>
		<path class="st0" d="M225.65,217.63c2.89,0,5.14,0.73,6.75,2.19s2.41,3.69,2.41,6.67c0,2.31-0.47,4.2-1.4,5.67
			c-0.93,1.46-2.38,2.4-4.34,2.82v0.1c1.73,0.25,3,0.82,3.8,1.69s1.3,2.27,1.49,4.2c0.07,0.65,0.11,1.34,0.14,2.09
			c0.03,0.76,0.07,1.6,0.1,2.53c0.07,1.83,0.16,3.23,0.28,4.2c0.2,0.96,0.61,1.62,1.25,1.97v0.28h-7.52
			c-0.35-0.48-0.58-1.04-0.68-1.67s-0.16-1.28-0.2-1.95l-0.2-6.61c-0.07-1.35-0.41-2.41-1.01-3.18c-0.61-0.77-1.64-1.16-3.09-1.16
			h-3.71v14.55h-6.94v-34.41h12.85v0.02H225.65z M222.66,232.66c1.67,0,2.96-0.39,3.86-1.18s1.35-2.11,1.35-3.98
			c0-3.18-1.61-4.77-4.82-4.77h-3.28v9.93H222.66L222.66,232.66z"/>
		<path class="st0" d="M258.86,223.31h-12.29v8.1h11.57v5.69h-11.57v9.26h12.78v5.69h-19.71v-34.41h19.23v5.67H258.86z"/>
		<path class="st0" d="M274.51,217.63c2.41,0,4.35,0.39,5.83,1.18c1.48,0.79,2.63,1.91,3.44,3.38c0.82,1.46,1.37,3.22,1.67,5.28
			c0.28,2.06,0.44,4.35,0.44,6.89c0,3.02-0.19,5.64-0.56,7.88s-1.01,4.08-1.91,5.52c-0.9,1.45-2.1,2.52-3.62,3.23
			c-1.51,0.71-3.42,1.06-5.73,1.06h-10.94v-34.41h11.37v-0.01H274.51z M273.17,246.93c1.22,0,2.2-0.21,2.94-0.62
			c0.73-0.42,1.33-1.11,1.76-2.07c0.44-0.96,0.72-2.24,0.87-3.8s0.22-3.54,0.22-5.88c0-1.96-0.07-3.68-0.2-5.16s-0.39-2.71-0.8-3.68
			c-0.41-0.98-1-1.72-1.79-2.21s-1.84-0.75-3.16-0.75h-2.94v24.19h3.09v-0.02H273.17z"/>
		<path class="st0" d="M106.73,257.17v5.69h-12.3v8.1H106v5.69H94.43v14.94H87.5v-34.41L106.73,257.17L106.73,257.17z"/>
		<path class="st0" d="M122.49,257.17l9.11,34.41h-7.23l-1.59-7.28h-9.16l-1.59,7.28h-7.23l9.11-34.41H122.49z M121.58,278.62
			l-3.32-15.47h-0.1l-3.32,15.47H121.58z"/>
		<path class="st0" d="M147.82,263.32c-0.59-1.14-1.68-1.71-3.25-1.71c-0.87,0-1.58,0.23-2.15,0.7c-0.56,0.46-1.01,1.22-1.33,2.27
			c-0.32,1.04-0.55,2.41-0.68,4.1c-0.13,1.69-0.2,3.75-0.2,6.19c0,2.61,0.09,4.71,0.26,6.31c0.18,1.61,0.45,2.85,0.82,3.74
			s0.83,1.48,1.4,1.79c0.56,0.31,1.22,0.46,1.95,0.46c0.61,0,1.18-0.11,1.71-0.32c0.53-0.21,0.99-0.62,1.37-1.25
			s0.69-1.51,0.92-2.65c0.22-1.14,0.34-2.64,0.34-4.5h6.94c0,1.86-0.14,3.63-0.44,5.3c-0.28,1.67-0.82,3.13-1.61,4.38
			s-1.9,2.24-3.32,2.94c-1.44,0.7-3.29,1.06-5.57,1.06c-2.61,0-4.68-0.42-6.21-1.25c-1.55-0.83-2.72-2.04-3.54-3.62
			c-0.82-1.58-1.35-3.45-1.59-5.64c-0.24-2.18-0.36-4.59-0.36-7.23c0-2.61,0.12-5.01,0.36-7.21c0.24-2.2,0.77-4.09,1.59-5.67
			c0.82-1.58,2.01-2.81,3.54-3.69c1.55-0.89,3.62-1.33,6.21-1.33c2.48,0,4.43,0.41,5.85,1.21c1.42,0.8,2.5,1.82,3.2,3.06
			s1.15,2.58,1.33,4c0.18,1.42,0.26,2.77,0.26,4.02h-6.94C148.71,266.28,148.41,264.46,147.82,263.32z"/>
		<path class="st0" d="M160.23,257.17h6.94v34.41h-6.94V257.17z"/>
		<path class="st0" d="M172.32,257.17h6.94v28.72h12.29v5.69h-19.23V257.17z"/>
		<path class="st0" d="M194.97,257.17h6.94v34.41h-6.94V257.17z"/>
		<path class="st0" d="M227.22,262.86h-7.52v28.72h-6.94v-28.72h-7.52v-5.69h21.98L227.22,262.86L227.22,262.86z"/>
		<path class="st0" d="M240.27,270.48h0.1l4.82-13.3h7.52l-8.92,20.86v13.54h-6.94v-13.54l-8.92-20.86h7.8L240.27,270.48z"/>
	</g>
</g>
</svg>
