<?xml version="1.0" encoding="utf-8"?>
<!-- Generator: Adobe Illustrator 27.0.1, SVG Export Plug-In . SVG Version: 6.00 Build 0)  -->
<svg version="1.1" id="Layer_1" xmlns="http://www.w3.org/2000/svg" xmlns:xlink="http://www.w3.org/1999/xlink" x="0px" y="0px"
	 viewBox="0 0 336 336" style="enable-background:new 0 0 336 336;" xml:space="preserve">
<style type="text/css">
	.st0{fill:#FFFFFF;stroke:#272727;stroke-width:2;stroke-miterlimit:10;}
	.st1{fill:#272727;}
	.st2{display:none;fill:#44AAA7;}
	.st3{display:none;}
	.st4{display:inline;fill:#FFFFFF;}
	.st5{fill:#FFFFFF;}
</style>
<g id="Layer_2_00000147177638815809590530000006362416627568379011_">
	<circle class="st0" cx="168.98" cy="168.22" r="166"/>
	<circle class="st1" cx="168.98" cy="168.22" r="123.33"/>
	<g>
		<path class="st1" d="M28.26,110.14c-0.53-0.09-1.05-0.09-1.54-0.02c-0.5,0.08-0.95,0.24-1.36,0.5s-0.71,0.64-0.91,1.16
			c-0.47,1.21-0.13,2.35,1.01,3.41c1.14,1.06,3.28,2.2,6.41,3.42c1.49,0.58,2.86,1.06,4.11,1.44s2.35,0.61,3.29,0.7
			c0.95,0.09,1.74-0.01,2.37-0.29c0.63-0.28,1.09-0.78,1.37-1.5c0.12-0.3,0.17-0.67,0.14-1.09c-0.02-0.42-0.14-0.86-0.34-1.3
			s-0.52-0.87-0.94-1.27c-0.42-0.4-0.97-0.74-1.65-1l-2.55-0.99l-1.29,3.32l-3.71-1.44l3.17-8.15l13.47,5.24l-1.44,3.71l-2.31-0.9
			l-0.03,0.07c0.74,0.99,1.15,1.99,1.23,3c0.08,1.01-0.12,2.11-0.58,3.3c-0.6,1.54-1.35,2.69-2.27,3.45
			c-0.91,0.76-2.04,1.2-3.37,1.31c-1.33,0.11-2.86-0.06-4.57-0.51c-1.72-0.45-3.66-1.1-5.83-1.94c-2.1-0.82-3.89-1.67-5.37-2.55
			c-1.48-0.88-2.63-1.86-3.43-2.93c-0.81-1.07-1.27-2.24-1.39-3.52c-0.12-1.28,0.13-2.73,0.76-4.34c1.07-2.75,2.52-4.47,4.36-5.15
			s4.03-0.53,6.57,0.46l-1.88,4.83C29.29,110.36,28.79,110.23,28.26,110.14z"/>
		<path class="st1" d="M33.82,100.71c-1.39-1.02-2.46-2.11-3.2-3.28c-0.74-1.17-1.11-2.44-1.11-3.82s0.51-2.96,1.52-4.71
			c1.01-1.76,2.12-2.98,3.31-3.68c1.2-0.7,2.48-1.02,3.87-0.96s2.86,0.44,4.44,1.13c1.58,0.69,3.25,1.55,5,2.56
			c1.78,1.02,3.36,2.04,4.74,3.06s2.44,2.1,3.19,3.27c0.74,1.17,1.1,2.43,1.06,3.8c-0.04,1.37-0.56,2.93-1.57,4.68
			c-1.01,1.76-2.1,2.99-3.26,3.71s-2.44,1.04-3.82,0.99c-1.38-0.06-2.86-0.43-4.42-1.12c-1.57-0.69-3.24-1.54-5.02-2.57
			C36.79,102.75,35.21,101.73,33.82,100.71z M45.29,101.26c1.14,0.56,2.12,0.92,2.93,1.08c0.81,0.17,1.5,0.13,2.06-0.11
			s1.04-0.71,1.44-1.4c0.4-0.69,0.56-1.34,0.49-1.95s-0.38-1.22-0.93-1.84c-0.55-0.62-1.35-1.28-2.41-1.99
			c-1.05-0.71-2.36-1.51-3.92-2.41c-1.56-0.9-2.91-1.62-4.03-2.17c-1.13-0.55-2.1-0.91-2.93-1.08c-0.82-0.17-1.52-0.14-2.07,0.1
			c-0.56,0.24-1.04,0.71-1.44,1.4c-0.4,0.69-0.56,1.34-0.49,1.95c0.07,0.6,0.39,1.22,0.95,1.85s1.36,1.29,2.41,1.99
			c1.04,0.7,2.34,1.5,3.9,2.4S44.16,100.7,45.29,101.26z"/>
		<path class="st1" d="M45.53,81.16c-1.22-1.22-2.11-2.46-2.68-3.72c-0.56-1.26-0.74-2.58-0.52-3.95c0.21-1.37,0.95-2.85,2.21-4.43
			s2.54-2.63,3.83-3.14c1.29-0.51,2.61-0.63,3.97-0.37c1.36,0.27,2.76,0.86,4.22,1.78c1.46,0.92,2.98,2.02,4.56,3.28
			c1.6,1.28,3.01,2.52,4.23,3.73c1.21,1.21,2.1,2.44,2.66,3.71s0.72,2.57,0.48,3.91c-0.24,1.34-0.99,2.81-2.26,4.39
			c-1.26,1.58-2.53,2.64-3.78,3.18c-1.26,0.53-2.57,0.67-3.92,0.4c-1.36-0.27-2.76-0.86-4.21-1.77c-1.45-0.91-2.97-2.01-4.58-3.29
			C48.16,83.62,46.75,82.38,45.53,81.16z M56.79,83.42c1.04,0.72,1.95,1.22,2.73,1.51s1.46,0.35,2.05,0.2
			c0.59-0.16,1.13-0.55,1.63-1.17c0.5-0.63,0.76-1.24,0.78-1.85s-0.2-1.26-0.65-1.96s-1.15-1.47-2.08-2.33
			c-0.93-0.86-2.1-1.85-3.51-2.97s-2.63-2.04-3.66-2.75s-1.94-1.21-2.73-1.51c-0.79-0.29-1.48-0.36-2.07-0.21s-1.13,0.55-1.63,1.17
			c-0.5,0.63-0.76,1.24-0.78,1.85s0.2,1.26,0.66,1.97s1.16,1.48,2.08,2.33s2.09,1.83,3.5,2.96C54.52,81.78,55.75,82.7,56.79,83.42z"
			/>
		<path class="st1" d="M61.68,51.45c1.38-1.27,2.7-2.07,3.96-2.4s2.51-0.29,3.75,0.11s2.49,1.12,3.74,2.14
			c1.25,1.03,2.55,2.26,3.89,3.72c1.6,1.73,2.88,3.33,3.84,4.81c0.97,1.47,1.58,2.86,1.82,4.17c0.25,1.3,0.13,2.56-0.37,3.76
			c-0.49,1.2-1.4,2.41-2.73,3.64l-6.27,5.78L55.17,57.46L61.68,51.45z M76.38,68.95c0.7-0.64,1.15-1.28,1.35-1.91
			c0.2-0.63,0.17-1.33-0.09-2.12c-0.26-0.78-0.77-1.66-1.51-2.64c-0.75-0.98-1.74-2.14-2.98-3.48c-1.03-1.12-1.98-2.07-2.83-2.85
			s-1.65-1.34-2.4-1.69s-1.48-0.46-2.19-0.33s-1.45,0.54-2.2,1.24l-1.68,1.55l12.77,13.86L76.38,68.95z"/>
		<path class="st1" d="M89.4,30.97l12.46,14.75l0.07-0.04l-5.71-18.45l7.01-3.85l12.89,23.5l-4.34,2.38L101.49,30.5l-0.07,0.04
			l6.11,21.06l-3.69,2.02L89.37,37.16L89.3,37.2l10.3,18.75l-4.34,2.38l-12.89-23.5L89.4,30.97z"/>
		<path class="st1" d="M121.52,16.83l15.28,23.14l-5.34,1.8l-2.98-4.98l-6.76,2.28l0.63,5.77l-5.34,1.8l-1.83-27.67L121.52,16.83z
			 M126.18,32.89l-6.3-10.6l-0.07,0.02l1.39,12.25L126.18,32.89z"/>
		<path class="st1" d="M148.87,29.38l0.07-0.01l-3.11-18.09l4.88-0.84l4.54,26.42l-6.07,1.04l-9.69-17.38l-0.07,0.01l3.18,18.5
			l-4.88,0.84l-4.54-26.42l6.14-1.06L148.87,29.38z"/>
		<path class="st1" d="M163.01,28.43c0.01,0.68,0.07,1.29,0.17,1.86c0.1,0.56,0.27,1.05,0.52,1.45c0.25,0.41,0.58,0.73,1,0.96
			s0.94,0.34,1.56,0.33c0.65-0.01,1.17-0.14,1.57-0.39c0.4-0.25,0.71-0.58,0.94-0.99c0.23-0.42,0.38-0.91,0.46-1.47
			s0.11-1.19,0.09-1.86l-0.37-18.69l5.4-0.11l0.37,18.69c0.03,1.7-0.18,3.11-0.63,4.24c-0.45,1.12-1.07,2.02-1.86,2.68
			c-0.79,0.67-1.69,1.12-2.71,1.37s-2.08,0.38-3.18,0.4c-1.1,0.02-2.17-0.06-3.2-0.24s-1.95-0.57-2.76-1.17s-1.47-1.45-1.97-2.57
			c-0.5-1.12-0.76-2.58-0.8-4.38l-0.37-18.69l5.41-0.11L163.01,28.43z"/>
		<path class="st1" d="M195.36,11.61l-0.51,4.4l-9.51-1.09l-0.72,6.27l8.95,1.03l-0.51,4.4l-8.95-1.03l-1.33,11.56l-5.37-0.62
			l3.06-26.63L195.36,11.61z"/>
		<path class="st1" d="M209.81,14.92l0.56,27.72l-5.47-1.33l0.14-5.8l-6.93-1.69l-2.54,5.22l-5.47-1.33l13.23-24.37L209.81,14.92z
			 M205.17,30.98l0.33-12.32l-0.07-0.02l-5.37,11.1L205.17,30.98z"/>
		<path class="st1" d="M229.54,26.79c-0.09-1-0.71-1.73-1.84-2.19c-0.63-0.26-1.21-0.3-1.75-0.13s-1.08,0.58-1.62,1.24
			s-1.11,1.58-1.7,2.75c-0.59,1.18-1.25,2.65-1.96,4.41c-0.77,1.88-1.33,3.42-1.67,4.63c-0.35,1.21-0.52,2.19-0.51,2.94
			c0,0.75,0.17,1.31,0.48,1.7c0.32,0.39,0.74,0.69,1.27,0.91c0.44,0.18,0.88,0.27,1.33,0.28c0.44,0.01,0.9-0.16,1.36-0.5
			s0.94-0.88,1.44-1.64s1.02-1.81,1.57-3.15l5,2.05c-0.55,1.34-1.17,2.58-1.88,3.69s-1.52,2.01-2.46,2.69
			c-0.94,0.67-2.03,1.05-3.26,1.14c-1.24,0.09-2.68-0.2-4.33-0.88c-1.88-0.77-3.25-1.68-4.11-2.74c-0.87-1.06-1.36-2.27-1.49-3.65
			s0.05-2.89,0.52-4.53s1.09-3.42,1.87-5.32c0.77-1.88,1.56-3.57,2.39-5.09c0.82-1.52,1.76-2.72,2.82-3.61
			c1.06-0.89,2.27-1.43,3.64-1.61s3,0.11,4.87,0.88c1.78,0.73,3.07,1.59,3.87,2.6c0.79,1,1.26,2.05,1.41,3.15
			c0.14,1.1,0.07,2.19-0.22,3.28c-0.29,1.08-0.63,2.08-1,2.98l-5-2.05C229.31,29.19,229.63,27.79,229.54,26.79z"/>
		<path class="st1" d="M253.81,39.2l-5.06-2.95L237.49,55.6l-4.67-2.72l11.25-19.34l-5.06-2.95l2.23-3.83l14.8,8.61L253.81,39.2z"/>
		<path class="st1" d="M252.75,56.13c-0.42,0.53-0.77,1.05-1.04,1.54c-0.28,0.5-0.45,0.98-0.52,1.45s-0.01,0.93,0.17,1.37
			s0.51,0.86,1.01,1.24c0.51,0.4,1,0.63,1.46,0.69c0.46,0.06,0.91,0,1.36-0.18c0.44-0.18,0.87-0.46,1.29-0.85s0.83-0.85,1.25-1.38
			l11.54-14.71l4.25,3.34l-11.54,14.71c-1.05,1.34-2.11,2.3-3.17,2.88c-1.06,0.58-2.11,0.88-3.14,0.9s-2.02-0.2-2.97-0.66
			c-0.95-0.46-1.85-1.02-2.72-1.7s-1.64-1.41-2.33-2.21c-0.68-0.79-1.15-1.67-1.4-2.65s-0.22-2.06,0.1-3.23
			c0.32-1.18,1.04-2.48,2.15-3.9l11.54-14.71l4.25,3.34L252.75,56.13z"/>
		<path class="st1" d="M285.14,60.25c1.55,1.64,2.34,3.3,2.37,4.99c0.03,1.69-0.79,3.34-2.49,4.94c-1.31,1.24-2.63,1.99-3.95,2.24
			c-1.33,0.26-2.63-0.06-3.92-0.94l-0.05,0.05c0.78,1.12,1.15,2.14,1.08,3.06c-0.06,0.92-0.58,1.95-1.57,3.09
			c-0.33,0.38-0.7,0.78-1.11,1.2c-0.41,0.42-0.87,0.89-1.38,1.41c-1,1.02-1.74,1.82-2.22,2.41c-0.44,0.63-0.59,1.21-0.45,1.77
			l-0.16,0.15l-4.03-4.25c0.08-0.46,0.28-0.88,0.58-1.27s0.64-0.77,1-1.15l3.63-3.65c0.73-0.76,1.15-1.52,1.26-2.28
			c0.11-0.76-0.22-1.55-1-2.36l-1.99-2.1l-8.23,7.79l-3.72-3.93L278.28,53L285.14,60.25z M275.04,66.61
			c0.89,0.94,1.8,1.46,2.73,1.55c0.93,0.09,1.92-0.37,2.97-1.37c1.8-1.7,1.84-3.46,0.12-5.28l-1.75-1.85l-5.62,5.32L275.04,66.61z"
			/>
		<path class="st1" d="M293.84,70.41l3.26,4.31L275.74,90.9l-3.26-4.31L293.84,70.41z"/>
		<path class="st1" d="M291.65,100.12l0.04,0.06l15.79-9.36l2.53,4.26l-23.06,13.67l-3.14-5.3l12.78-15.26l-0.04-0.06L280.4,97.7
			l-2.53-4.26l23.06-13.67l3.18,5.36L291.65,100.12z"/>
		<path class="st1" d="M311.45,114.59c0.45-0.3,0.83-0.65,1.14-1.04s0.53-0.83,0.65-1.29c0.12-0.47,0.08-0.96-0.12-1.47
			c-0.48-1.21-1.51-1.81-3.07-1.8s-3.9,0.63-7.01,1.88c-1.49,0.6-2.82,1.18-3.99,1.76c-1.17,0.58-2.13,1.16-2.88,1.74
			c-0.75,0.58-1.26,1.19-1.53,1.83s-0.26,1.31,0.03,2.03c0.12,0.3,0.33,0.6,0.64,0.9c0.31,0.29,0.69,0.53,1.14,0.72
			c0.45,0.18,0.97,0.28,1.55,0.29s1.21-0.12,1.89-0.39l2.54-1.02l-1.33-3.31l3.69-1.48l3.25,8.12l-13.42,5.38l-1.48-3.69l2.3-0.92
			l-0.03-0.07c-1.22-0.21-2.2-0.66-2.95-1.35c-0.75-0.69-1.36-1.62-1.83-2.81c-0.61-1.53-0.85-2.89-0.7-4.07s0.67-2.26,1.57-3.26
			c0.9-0.99,2.13-1.91,3.69-2.75s3.43-1.7,5.59-2.56c2.09-0.84,3.98-1.44,5.67-1.81c1.69-0.37,3.19-0.44,4.51-0.21
			s2.46,0.77,3.42,1.62s1.77,2.08,2.41,3.69c1.1,2.74,1.21,4.99,0.33,6.74s-2.58,3.14-5.11,4.15l-1.93-4.81
			C310.55,115.13,311.01,114.89,311.45,114.59z"/>
	</g>
</g>
<g id="Layer_5">
	<polygon class="st1" points="46.26,216.39 41.14,222.07 42.93,229.51 35.94,226.4 29.42,230.4 30.21,222.79 24.4,217.82 
		31.88,216.23 34.81,209.16 38.63,215.79 	"/>
	<g>
		<polygon class="st1" points="68.37,255.41 63.49,260.84 65.19,267.94 58.52,264.97 52.29,268.79 53.05,261.52 47.5,256.78 
			54.64,255.26 57.44,248.51 61.09,254.83 		"/>
		<polygon class="st1" points="35.35,174.43 30.47,179.86 32.17,186.96 25.5,184 19.27,187.81 20.03,180.55 14.48,175.8 
			21.62,174.28 24.42,167.53 28.07,173.86 		"/>
	</g>
	<polygon class="st1" points="290.39,216.21 298.03,215.8 302.02,209.28 304.77,216.42 312.2,218.21 306.26,223.02 306.86,230.65 
		300.44,226.49 293.38,229.41 295.35,222.02 	"/>
	<g>
		<polygon class="st1" points="301.46,174.28 308.76,173.89 312.57,167.67 315.19,174.48 322.3,176.19 316.62,180.79 317.19,188.07 
			311.07,184.1 304.32,186.89 306.21,179.83 		"/>
		<polygon class="st1" points="269.56,254.79 276.85,254.41 280.67,248.18 283.29,255 290.39,256.71 284.71,261.31 285.29,268.59 
			279.16,264.61 272.41,267.4 274.3,260.35 		"/>
	</g>
	<rect x="167.45" y="168.22" class="st2" width="130.73" height="30.3"/>
	<g>
		<path class="st1" d="M111.32,286.36c1.28,0.64,2.24,1.4,2.9,2.27c0.65,0.87,1.07,1.79,1.26,2.75c0.18,0.97,0.17,1.95-0.05,2.96
			c-0.22,1.01-0.56,1.98-1.03,2.91c-0.64,1.28-1.4,2.29-2.26,3.05c-0.86,0.76-1.79,1.27-2.78,1.53s-2.05,0.29-3.17,0.1
			c-1.13-0.19-2.28-0.58-3.47-1.18l-2.68-1.35l-5,9.92L90,306.8l12.53-24.87L111.32,286.36z M104.11,296.84
			c1,0.5,1.96,0.61,2.88,0.31c0.92-0.29,1.7-1.08,2.35-2.36c0.63-1.25,0.84-2.34,0.64-3.26c-0.21-0.92-0.94-1.69-2.19-2.33
			l-2.09-1.05l-3.81,7.56L104.11,296.84z"/>
		<path class="st1" d="M129.1,293.48c2.22,0.73,3.76,1.87,4.63,3.4s0.92,3.44,0.16,5.74c-0.59,1.78-1.42,3.11-2.51,4
			s-2.44,1.24-4.05,1.07l-0.02,0.07c1.27,0.64,2.1,1.39,2.5,2.26c0.4,0.87,0.43,2.07,0.08,3.6c-0.11,0.51-0.25,1.06-0.42,1.65
			s-0.36,1.25-0.57,1.97c-0.42,1.42-0.7,2.52-0.84,3.3c-0.1,0.79,0.06,1.4,0.46,1.84l-0.07,0.22l-5.78-1.91
			c-0.15-0.46-0.18-0.94-0.1-1.45s0.2-1.02,0.35-1.55l1.53-5.12c0.29-1.05,0.3-1.95,0.03-2.7c-0.27-0.75-0.97-1.3-2.08-1.67
			l-2.85-0.94l-3.69,11.18l-5.33-1.76l8.73-26.44L129.1,293.48z M122.99,304.28c1.28,0.42,2.37,0.45,3.26,0.07s1.57-1.28,2.05-2.71
			c0.81-2.44-0.02-4.07-2.49-4.89l-2.52-0.83l-2.52,7.63L122.99,304.28z"/>
		<path class="st1" d="M150.49,298.38l2.68,28.68l-5.77-0.97l-0.3-6.02l-7.31-1.22l-2.24,5.6l-5.77-0.96l11.86-26.25L150.49,298.38z
			 M146.9,315.37l-0.59-12.79l-0.08-0.01l-4.72,11.9L146.9,315.37z"/>
		<path class="st1" d="M169.14,304.61c-0.46-0.93-1.33-1.41-2.61-1.43c-0.7-0.01-1.28,0.17-1.75,0.53c-0.46,0.37-0.83,0.97-1.1,1.81
			s-0.48,1.94-0.6,3.31c-0.13,1.36-0.21,3.03-0.25,5.01c-0.04,2.11,0,3.81,0.12,5.11s0.32,2.31,0.61,3.03s0.65,1.21,1.1,1.46
			c0.45,0.26,0.97,0.39,1.57,0.4c0.49,0.01,0.96-0.07,1.39-0.23s0.81-0.49,1.13-0.99s0.58-1.21,0.78-2.13s0.31-2.13,0.34-3.64
			l5.62,0.1c-0.03,1.51-0.17,2.94-0.43,4.28c-0.26,1.35-0.71,2.52-1.37,3.53c-0.66,1-1.57,1.78-2.73,2.33
			c-1.17,0.55-2.67,0.81-4.52,0.78c-2.11-0.04-3.78-0.41-5.01-1.1c-1.24-0.7-2.17-1.69-2.81-2.98s-1.04-2.81-1.21-4.58
			c-0.16-1.77-0.23-3.72-0.19-5.85c0.04-2.11,0.17-4.05,0.4-5.82s0.68-3.3,1.37-4.56s1.66-2.24,2.92-2.93s2.94-1.02,5.05-0.98
			c2,0.04,3.58,0.39,4.72,1.06c1.14,0.67,1.99,1.51,2.55,2.52c0.55,1.01,0.89,2.1,1.01,3.26s0.17,2.25,0.16,3.26l-5.62-0.1
			C169.82,307.02,169.61,305.54,169.14,304.61z"/>
		<path class="st1" d="M194.31,302.17l-6.04,0.73l2.78,23.08l-5.58,0.67l-2.78-23.08l-6.04,0.73l-0.55-4.57l17.66-2.13
			L194.31,302.17z"/>
		<path class="st1" d="M195.27,297.03l5.48-1.23l6.11,27.17l-5.48,1.23L195.27,297.03z"/>
		<path class="st1" d="M215.87,296.36c-0.75-0.72-1.74-0.87-2.94-0.46c-0.66,0.23-1.15,0.59-1.46,1.1c-0.31,0.5-0.45,1.2-0.42,2.08
			c0.03,0.88,0.21,1.99,0.56,3.31c0.34,1.33,0.84,2.92,1.48,4.79c0.68,1.99,1.3,3.58,1.86,4.76c0.56,1.18,1.09,2.06,1.61,2.64
			c0.51,0.58,1.03,0.91,1.54,1s1.05,0.03,1.61-0.16c0.47-0.16,0.88-0.39,1.23-0.69c0.35-0.3,0.59-0.74,0.72-1.32
			c0.13-0.58,0.13-1.34,0-2.27s-0.44-2.11-0.93-3.54l5.31-1.82c0.49,1.43,0.84,2.82,1.06,4.17s0.19,2.61-0.08,3.78
			s-0.86,2.21-1.77,3.12c-0.91,0.92-2.24,1.67-3.98,2.27c-1.99,0.68-3.69,0.91-5.09,0.67c-1.4-0.23-2.62-0.85-3.66-1.84
			c-1.04-0.99-1.94-2.29-2.7-3.9s-1.48-3.42-2.18-5.44c-0.68-1.99-1.22-3.86-1.62-5.61c-0.39-1.75-0.48-3.33-0.27-4.75
			c0.21-1.42,0.79-2.67,1.74-3.75s2.42-1.96,4.41-2.65c1.89-0.65,3.49-0.86,4.8-0.62c1.3,0.24,2.39,0.74,3.26,1.5
			s1.55,1.67,2.07,2.71s0.93,2.05,1.26,3.01l-5.31,1.82C217.33,298.4,216.62,297.08,215.87,296.36z"/>
		<path class="st1" d="M237.93,285.79l-8.86,4.51l2.97,5.84l8.34-4.25l2.09,4.1l-8.34,4.25l3.4,6.67l9.21-4.69l2.09,4.1l-14.22,7.24
			l-12.63-24.82l13.87-7.06L237.93,285.79z"/>
	</g>
</g>
<g id="Layer_4">
	<g class="st3">
		<path class="st4" d="M168.98,335.24c-44.61,0-86.55-17.37-118.1-48.92S1.96,212.83,1.96,168.22s17.37-86.55,48.92-118.1
			C82.43,18.58,124.37,1.2,168.98,1.2s86.55,17.37,118.1,48.92S336,123.61,336,168.22s-17.37,86.55-48.92,118.1
			C255.54,317.87,213.59,335.24,168.98,335.24z M168.98,10.76c-86.82,0-157.46,70.64-157.46,157.46s70.64,157.46,157.46,157.46
			s157.46-70.64,157.46-157.46S255.8,10.76,168.98,10.76z"/>
	</g>
	<g>
		<path class="st5" d="M110.81,121.49v-17.12c0-3.03-0.61-5.15-2.12-6.97c-0.76-0.76-1.97-1.21-3.33-1.21
			c-2.88,0-4.24,2.12-4.85,4.09c-0.45,1.21-0.61,2.58-0.61,4.09v66.96c0,3.18,0.76,5.3,2.27,6.97c0.76,0.76,1.82,1.21,3.18,1.21
			c2.88,0,4.24-1.82,4.85-4.09c0.45-1.06,0.61-2.42,0.61-4.09v-20.15h-6.51V137.4h22.88v55.45h-9.7l-1.97-5.3
			c-3.03,3.79-7.42,6.51-12.73,6.51c-5.3,0-8.94-1.36-11.67-3.79c-2.73-2.27-4.55-5.15-5.76-8.18c-1.36-3.48-1.97-7.58-1.82-12.12
			v-65.6c0.15-4.39,1.06-8.48,2.73-11.97c1.36-3.03,3.33-6.06,6.36-8.33c3.03-2.27,7.27-3.79,12.73-3.79
			c5.45,0,9.54,1.51,12.57,3.79c3.03,2.27,5.15,5.3,6.51,8.33c1.67,3.48,2.58,7.58,2.73,11.97v17.12
			C127.16,121.49,110.81,121.49,110.81,121.49z"/>
		<path class="st5" d="M166.25,192.85l-10.45-69.99l-0.61-4.7h-0.91v74.69h-15.15V81.49h20l9.7,50.9l0.76,5.91h0.3l0.76-5.91
			l9.7-50.9h20v111.35H185.2v-74.69h-0.91l-0.61,4.7l-10.45,69.99h-6.98V192.85z"/>
		<path class="st5" d="M212.46,81.49h16.36c7.12,0,14.24,1.82,19.7,6.97c5.45,5.15,9.09,13.64,9.09,26.36
			c0,12.73-3.64,21.06-9.09,26.21s-12.57,7.27-19.7,7.27v44.54h-16.36L212.46,81.49L212.46,81.49z M228.82,131.64
			c5,0,8.18-0.91,10-3.48c1.82-2.42,2.27-6.51,2.27-12.73s-0.45-10.61-2.27-13.33c-1.82-2.73-5-3.94-10-3.94V131.64z"/>
	</g>
	<g>
		<path class="st5" d="M102.04,233.48v6.38c-0.06,1.89-0.44,3.6-1.14,5.05c-0.57,1.26-1.45,2.46-2.72,3.41
			c-1.26,1.01-2.97,1.58-5.24,1.58s-4.04-0.57-5.3-1.58c-1.26-0.95-2.08-2.15-2.65-3.41c-0.69-1.45-1.07-3.16-1.14-5.05v-27.34
			c0.06-1.83,0.44-3.54,1.14-4.99c0.57-1.26,1.39-2.53,2.65-3.47c1.26-0.95,3.03-1.58,5.3-1.58c2.27,0,3.98,0.63,5.24,1.58
			c1.26,0.95,2.15,2.21,2.72,3.47c0.69,1.45,1.07,3.16,1.14,4.99v6.38h-6.38v-6.38c0-1.26-0.32-2.15-1.01-2.9
			c-0.32-0.32-0.88-0.51-1.58-0.51c-1.2,0-1.77,0.88-2.08,1.7c-0.19,0.51-0.25,1.07-0.32,1.7v27.34c0.06,1.33,0.44,2.21,1.07,2.9
			c0.32,0.32,0.76,0.51,1.33,0.51c1.45,0,2.02-0.76,2.34-1.7c0.19-0.44,0.25-1.01,0.25-1.7v-6.38H102.04z"/>
		<path class="st5" d="M106.14,202.99h15.6V210h-8.78v12.19h6.31v7.45h-6.31v12.76h8.78v7.01h-15.6V202.99z"/>
		<path class="st5" d="M137.71,249.4l-3.54-19.57h-1.83v19.57h-6.82v-46.41h6.82c8.15,0,11.62,4.61,11.62,13.39
			c0,4.61-1.2,8.78-3.79,10.55l4.36,22.48L137.71,249.4L137.71,249.4z M132.35,223.51c0.95,0,2.21-0.13,3.22-1.01
			c1.01-0.88,1.83-2.59,1.83-5.87s-0.82-5.05-1.83-5.94c-1.01-0.88-2.27-0.95-3.22-0.95V223.51z"/>
		<path class="st5" d="M145.92,209.99v-7.01h19.7v7.01h-6.44v39.4h-6.82v-39.4L145.92,209.99L145.92,209.99z"/>
		<path class="st5" d="M168.27,202.99h6.82v46.41h-6.82V202.99z"/>
		<path class="st5" d="M196.37,209.99h-9.41v12.19h6.31v7.01h-6.31v20.21h-6.82v-46.41h16.23L196.37,209.99L196.37,209.99z"/>
		<path class="st5" d="M199.15,202.99h6.82v46.41h-6.82V202.99z"/>
		<path class="st5" d="M211.02,202.99h15.6V210h-8.78v12.19h6.31v7.45h-6.31v12.76h8.78v7.01h-15.6V202.99z"/>
		<path class="st5" d="M230.4,249.4v-46.41h5.37c6.31,0,9.72,1.26,11.56,4.8c1.77,3.54,2.02,9.35,2.02,18.44s-0.25,14.84-2.02,18.38
			c-1.83,3.54-5.24,4.8-11.56,4.8h-5.37V249.4z M237.22,242.58c2.34,0,3.66-0.25,4.36-2.53c0.32-1.07,0.57-2.71,0.63-4.93
			c0.06-2.21,0.06-5.18,0.06-8.97c0-3.79,0-6.76-0.06-8.97c-0.06-2.15-0.32-3.79-0.63-4.93c-0.69-2.21-2.02-2.46-4.36-2.46V242.58z"
			/>
	</g>
</g>
</svg>
