<?xml version="1.0" encoding="utf-8"?>
<!-- Generator: Adobe Illustrator 27.0.1, SVG Export Plug-In . SVG Version: 6.00 Build 0)  -->
<svg version="1.1" xmlns="http://www.w3.org/2000/svg" xmlns:xlink="http://www.w3.org/1999/xlink" x="0px" y="0px"
	 viewBox="0 0 336 336" style="enable-background:new 0 0 336 336;" xml:space="preserve">
<style type="text/css">
	.st0{fill:#FFFFFF;}
	.st1{clip-path:url(#SVGID_00000164503656495113316450000009608742236352254358_);}
	.st2{fill:#272727;}
</style>
<g id="Layer_2">
</g>
<g id="Layer_1">
	<g id="Layer_3">
		<g>
			<path class="st0" d="M169,7.2c43,0,83.4,16.7,113.8,47.2c30.4,30.4,47.2,70.8,47.2,113.8s-16.7,83.4-47.2,113.8
				c-30.4,30.4-70.8,47.2-113.8,47.2c-43,0-83.4-16.7-113.8-47.2C24.7,251.7,8,211.2,8,168.2S24.7,84.8,55.1,54.4
				C85.5,24,126,7.2,169,7.2 M169,2.2C77.3,2.2,3,76.5,3,168.2s74.3,166,166,166s166-74.3,166-166S260.7,2.2,169,2.2L169,2.2z"/>
		</g>
	</g>
	<g id="Layer_2_00000091729072187183610620000012361892494758589099_">
		<g>
			<path class="st0" d="M89.2,269.8L81,288l0.1,0l14.7-13.6l6.8,4.8l-16.2,22.6l-4.2-3L95,280.9l-0.1,0L78,296l-3.6-2.5l8.9-21
				l-0.1,0l-12.9,18.1l-4.2-3l16.2-22.6L89.2,269.8z"/>
			<path class="st0" d="M115.7,285.4l-5.3,28.3l-5.3-2.5l1.4-5.9l-6.7-3.2l-3.7,4.8l-5.3-2.5l18.6-22L115.7,285.4z M107.5,300.8
				l2.9-12.5l-0.1,0l-7.8,10.1L107.5,300.8z"/>
			<path class="st0" d="M131.7,291.3c1.9,0.5,3.3,1.3,4.2,2.3s1.6,2.1,1.9,3.4c0.3,1.3,0.3,2.8,0.1,4.5s-0.7,3.5-1.2,5.5
				c-0.7,2.3-1.4,4.3-2.2,6s-1.7,2.9-2.8,3.8s-2.2,1.5-3.6,1.7c-1.3,0.2-2.9,0-4.7-0.5l-8.5-2.5l7.9-26.7L131.7,291.3z M123.9,313.7
				c0.9,0.3,1.8,0.4,2.4,0.2c0.7-0.1,1.3-0.5,1.8-1.2c0.6-0.6,1.1-1.6,1.6-2.8c0.5-1.2,1-2.7,1.5-4.5c0.4-1.5,0.8-2.9,1-4
				c0.2-1.2,0.3-2.2,0.2-3s-0.4-1.6-0.9-2.1c-0.5-0.6-1.3-1-2.3-1.3l-2.3-0.7l-5.6,18.8L123.9,313.7z"/>
			<path class="st0" d="M157.4,301l-9.8-1.4l-0.9,6.5l9.3,1.3l-0.7,4.5l-9.3-1.3l-1.1,7.4l10.2,1.5l-0.7,4.5l-15.8-2.3l4-27.6
				l15.4,2.2L157.4,301z"/>
			<path class="st0" d="M169.1,296.6l5.6-0.1l0.6,27.8l-5.6,0.1L169.1,296.6z"/>
			<path class="st0" d="M193.3,313.8L193.3,313.8l-2.5-18.9l5.1-0.7l3.7,27.6l-6.3,0.9l-9.4-18.4l-0.1,0l2.6,19.3l-5.1,0.7
				l-3.7-27.6l6.4-0.9L193.3,313.8z"/>
			<path class="st0" d="M218.2,307.9c0.2,0.7,0.5,1.2,0.8,1.8s0.6,0.9,1,1.2s0.8,0.5,1.3,0.6c0.5,0.1,1,0,1.6-0.2
				c0.6-0.2,1.1-0.5,1.4-0.9c0.3-0.4,0.5-0.8,0.6-1.3s0.1-1-0.1-1.6c-0.1-0.6-0.3-1.2-0.5-1.9l-6.7-18.2l5.3-1.9l6.7,18.2
				c0.6,1.7,0.9,3.1,0.8,4.4c-0.1,1.3-0.4,2.4-0.9,3.3c-0.6,0.9-1.3,1.7-2.2,2.3s-1.9,1.1-3,1.5c-1.1,0.4-2.1,0.7-3.2,0.9
				s-2.1,0.1-3.1-0.2s-1.9-0.9-2.8-1.9c-0.9-0.9-1.6-2.3-2.3-4l-6.7-18.2l5.3-1.9L218.2,307.9z"/>
			<path class="st0" d="M238.1,300c0.3,0.6,0.6,1.1,1,1.5c0.4,0.4,0.7,0.7,1.2,0.9c0.4,0.2,0.9,0.2,1.4,0.2s1.1-0.2,1.7-0.6
				c0.8-0.4,1.3-1,1.6-1.9s0.2-1.8-0.3-2.8c-0.3-0.5-0.6-1-1-1.3s-0.8-0.5-1.3-0.7c-0.5-0.1-1.1-0.2-1.8-0.1c-0.7,0-1.5,0.1-2.5,0.3
				c-1.3,0.2-2.5,0.4-3.5,0.4s-2-0.1-2.8-0.4s-1.6-0.8-2.3-1.4s-1.3-1.4-1.8-2.5c-1.3-2.4-1.6-4.6-0.9-6.5c0.7-1.9,2.2-3.5,4.6-4.8
				c1.1-0.6,2.2-1,3.2-1.3s2.1-0.3,3-0.1c1,0.2,1.9,0.6,2.7,1.2s1.6,1.5,2.2,2.7l0.4,0.7l-4.7,2.6c-0.6-1.2-1.3-2-2.1-2.4
				s-1.6-0.4-2.6,0.2c-0.6,0.3-1,0.6-1.2,1s-0.4,0.7-0.5,1.1c-0.1,0.4-0.1,0.8,0.1,1.1s0.3,0.8,0.5,1.1c0.4,0.8,0.9,1.3,1.5,1.6
				c0.6,0.3,1.5,0.4,2.8,0.3l4.7-0.4c1.2-0.1,2.2-0.1,3,0c0.8,0.1,1.6,0.3,2.2,0.7c0.6,0.3,1.2,0.8,1.7,1.3s0.9,1.2,1.3,1.9
				c1.4,2.6,1.7,4.9,0.8,6.9c-0.9,2-2.6,3.7-5.3,5.2c-2.8,1.5-5.1,2-7,1.4s-3.4-2-4.6-4.2l-0.5-1l4.9-2.7L238.1,300z"/>
			<path class="st0" d="M250.8,268.1l22.6,17.8l-4.7,3.5l-4.6-3.9l-5.9,4.5l2.5,5.5l-4.7,3.5l-10.9-26.7L250.8,268.1z M260.7,282.5
				l-9.7-8.4l-0.1,0l5.4,11.6L260.7,282.5z"/>
		</g>
		<g>
			<path class="st0" d="M73.5,45.5l14.1,13.1l0.1,0L79.8,41l6.5-4.7L102,58.1l-4,2.9L85.5,43.6l-0.1,0L94,63.8l-3.4,2.5L74.2,51.7
				l-0.1,0l12.5,17.4l-4,2.9L67,50.2L73.5,45.5z"/>
			<path class="st0" d="M103.7,27.6l18,21.1l-5.1,2.4l-3.6-4.6l-6.4,3.1l1.3,5.7l-5.1,2.4l-5.2-27.2L103.7,27.6z M110.2,43l-7.5-9.8
				l-0.1,0l2.9,12L110.2,43z"/>
			<path class="st0" d="M123.6,20.2c1.8-0.5,3.3-0.7,4.6-0.4c1.3,0.3,2.4,0.8,3.3,1.8s1.8,2.1,2.4,3.6c0.7,1.5,1.3,3.1,1.9,5.1
				c0.7,2.2,1.1,4.3,1.4,6c0.2,1.8,0.2,3.3-0.2,4.5c-0.4,1.3-1,2.3-2,3.2c-1,0.9-2.3,1.6-4,2.1l-8.2,2.5l-7.7-25.7L123.6,20.2z
				 M129.1,42.4c0.9-0.3,1.6-0.7,2.1-1.1c0.5-0.5,0.7-1.1,0.9-1.9s0-1.8-0.2-3c-0.2-1.2-0.6-2.7-1.1-4.4c-0.4-1.5-0.9-2.7-1.3-3.8
				c-0.4-1.1-0.9-1.9-1.4-2.6c-0.5-0.6-1.1-1.1-1.8-1.3c-0.7-0.2-1.5-0.1-2.5,0.1l-2.2,0.7l5.4,18L129.1,42.4z"/>
			<path class="st0" d="M153.9,18.6l-9.5,1.4l0.9,6.2l8.9-1.3l0.6,4.4l-8.9,1.3l1.1,7.1l9.8-1.5l0.6,4.4l-15.2,2.2l-3.9-26.5
				l14.8-2.2L153.9,18.6z"/>
			<path class="st0" d="M169,13.6l5.4,0.1l-0.4,26.8l-5.4-0.1L169,13.6z"/>
			<path class="st0" d="M191,33.7L191,33.7l2.4-18.2l4.9,0.6l-3.4,26.6l-6.1-0.8l-4.1-19.5l-0.1,0L182.2,41l-4.9-0.6l3.4-26.6
				l6.2,0.8L191,33.7z"/>
			<path class="st0" d="M213.5,39.5c-0.2,0.6-0.4,1.2-0.5,1.8s-0.1,1.1,0,1.5s0.3,0.9,0.6,1.2s0.8,0.7,1.3,0.9
				c0.6,0.2,1.1,0.3,1.6,0.2c0.5-0.1,0.9-0.3,1.2-0.6c0.4-0.3,0.7-0.7,1-1.2c0.3-0.5,0.5-1.1,0.8-1.7l6.4-17.6l5.1,1.8l-6.4,17.6
				c-0.6,1.6-1.3,2.8-2.1,3.7s-1.7,1.5-2.7,1.8s-2,0.4-3,0.3s-2.1-0.4-3.1-0.8c-1-0.4-2-0.8-2.9-1.4s-1.6-1.2-2.2-2.1
				c-0.6-0.8-0.9-1.9-0.9-3.1c-0.1-1.2,0.2-2.7,0.8-4.4l6.4-17.6l5.1,1.8L213.5,39.5z"/>
			<path class="st0" d="M231.5,47.6c-0.3,0.5-0.5,1.1-0.7,1.6s-0.2,1-0.1,1.4s0.3,0.9,0.6,1.2c0.3,0.4,0.8,0.8,1.4,1.1
				c0.7,0.4,1.5,0.5,2.4,0.3c0.8-0.2,1.5-0.7,2.1-1.7c0.3-0.5,0.5-1,0.5-1.5c0.1-0.5,0-0.9-0.1-1.4c-0.2-0.5-0.4-1-0.9-1.5
				s-0.9-1.2-1.6-1.8c-0.9-0.9-1.6-1.8-2.1-2.6c-0.6-0.8-0.9-1.7-1.1-2.5s-0.2-1.7-0.1-2.6c0.1-0.9,0.5-1.8,1-2.8
				c1.2-2.3,2.8-3.7,4.8-4.2s4-0.1,6.3,1.1c1.1,0.6,2,1.2,2.8,1.9c0.8,0.7,1.3,1.5,1.7,2.4c0.4,0.9,0.5,1.8,0.5,2.8s-0.4,2.1-1,3.2
				l-0.4,0.7l-4.6-2.4c0.6-1.1,0.9-2.1,0.8-2.9c-0.1-0.8-0.6-1.5-1.5-2c-0.5-0.3-1-0.4-1.4-0.5c-0.4,0-0.8,0-1.2,0.2
				c-0.4,0.1-0.6,0.4-0.9,0.7s-0.5,0.6-0.7,1c-0.4,0.7-0.6,1.4-0.5,2.1c0,0.7,0.5,1.5,1.2,2.4l2.8,3.5c0.7,0.9,1.2,1.7,1.6,2.4
				s0.6,1.5,0.6,2.1c0.1,0.7,0,1.3-0.2,2c-0.2,0.7-0.5,1.4-0.9,2.1c-1.3,2.5-3,3.9-5.1,4.3c-2.1,0.4-4.4-0.1-7-1.5
				c-2.7-1.4-4.3-3-4.8-4.8s-0.2-3.8,0.9-6l0.5-1l4.8,2.5L231.5,47.6z"/>
			<path class="st0" d="M265.9,46.7l-10.2,25.8l-4.5-3.3l2.4-5.3l-5.7-4.2l-4.4,3.8l-4.5-3.4l21.6-17.3L265.9,46.7z M255.4,59.7
				l5.1-11.2l-0.1,0l-9.2,8.1L255.4,59.7z"/>
		</g>
		<g id="Layer_5">
		</g>
		<g>
			<polygon class="st0" points="301.4,176.6 303.8,176 311.6,173.9 316.6,180.3 318,182.2 318.2,179.8 318.5,171.6 326.2,168.9 
				328.4,168.1 326.2,167.2 318.6,164.4 318.3,156.2 318.3,153.8 316.8,155.7 311.7,162 303.9,159.8 301.6,159.1 302.9,161.1 
				307.3,167.9 302.8,174.6 			"/>
			<polygon class="st0" points="36.5,159.4 34.2,160 26.4,162.1 21.4,155.7 19.9,153.8 19.8,156.2 19.4,164.4 11.8,167.1 9.5,167.9 
				11.8,168.8 19.4,171.6 19.6,179.8 19.7,182.2 21.2,180.3 26.3,174 34.1,176.2 36.4,176.9 35.1,174.9 30.6,168.1 35.2,161.4 			
				"/>
			<polygon class="st0" points="294.2,123.9 296,122.4 302.4,117.4 309.5,121.3 311.6,122.5 310.8,120.2 308,112.6 313.9,107.1 
				315.6,105.4 313.2,105.5 305.1,105.8 301.7,98.5 300.7,96.3 300,98.6 297.9,106.4 289.8,107.4 287.4,107.7 289.4,109.1 
				296.2,113.6 294.6,121.5 			"/>
			<polygon class="st0" points="288.7,225.3 291.1,225.6 299.1,226.5 301.4,234.4 302,236.7 303,234.5 306.4,227.1 314.5,227.4 
				316.9,227.5 315.2,225.8 309.2,220.3 312,212.7 312.8,210.4 310.7,211.6 303.6,215.6 297.2,210.6 295.3,209.1 295.8,211.5 
				297.4,219.4 290.7,224 			"/>
			<polygon class="st0" points="49.3,110.7 46.9,110.4 38.8,109.5 36.6,101.7 35.9,99.3 34.9,101.5 31.5,108.9 23.4,108.6 21,108.5 
				22.8,110.2 28.8,115.7 26,123.3 25.2,125.6 27.2,124.4 34.3,120.4 40.7,125.4 42.6,126.9 42.2,124.5 40.5,116.6 47.3,112 			"/>
			<polygon class="st0" points="43.8,212.1 41.9,213.6 35.5,218.6 28.4,214.7 26.3,213.5 27.2,215.8 30,223.4 24.1,228.9 
				22.3,230.6 24.7,230.5 32.8,230.1 36.2,237.5 37.3,239.7 37.9,237.4 40.1,229.6 48.2,228.6 50.5,228.3 48.5,226.9 41.8,222.4 
				43.3,214.5 			"/>
		</g>
	</g>
	<g id="Layer_4">
		<g>
			<g>
				<defs>
					<path id="SVGID_1_" d="M292.3,168c0,68.1-55.2,123.3-123.3,123.3c-68.1,0-123.3-55.2-123.3-123.3
						c0-68.1,55.2-123.3,123.3-123.3C237.1,44.7,292.3,99.9,292.3,168z"/>
				</defs>
				<clipPath id="SVGID_00000106133896790107623790000008521477377998552976_">
					<use xlink:href="#SVGID_1_"  style="overflow:visible;"/>
				</clipPath>
				<g style="clip-path:url(#SVGID_00000106133896790107623790000008521477377998552976_);">
					<g>
						<rect x="-10.6" y="44.3" class="st0" width="319.5" height="253.4"/>
						<rect x="-10.6" y="41.2" class="st2" width="319.5" height="20"/>
						<rect x="-10.6" y="80.9" class="st2" width="319.5" height="20"/>
						<rect x="-10.6" y="120.6" class="st2" width="319.5" height="20"/>
						<rect x="-10.6" y="160.2" class="st2" width="319.5" height="20"/>
						<rect x="-10.6" y="199.9" class="st2" width="319.5" height="20"/>
						<rect x="-10.6" y="239.6" class="st2" width="319.5" height="20"/>
						<rect x="-10.6" y="279.2" class="st2" width="319.5" height="20"/>
					</g>
					<g>
						<rect x="-10.6" y="41.2" class="st2" width="195.8" height="139.1"/>
						<g>
							<polygon class="st0" points="7.6,48.8 9.4,53.8 14.8,54 10.6,57.4 12,62.6 7.6,59.6 3.1,62.6 4.5,57.4 0.3,54 5.7,53.8 
															"/>
							<polygon class="st0" points="39.5,48.8 41.3,53.8 46.7,54 42.5,57.4 43.9,62.6 39.5,59.6 35,62.6 36.4,57.4 32.2,54 
								37.6,53.8 							"/>
							<polygon class="st0" points="71.4,48.8 73.2,53.8 78.6,54 74.4,57.4 75.8,62.6 71.4,59.6 66.9,62.6 68.3,57.4 64.1,54 
								69.5,53.8 							"/>
							<polygon class="st0" points="135.2,48.8 137.1,53.8 142.4,54 138.2,57.4 139.7,62.6 135.2,59.6 130.7,62.6 132.2,57.4 
								127.9,54 133.3,53.8 							"/>
							<polygon class="st0" points="167.1,48.8 168.9,53.8 174.3,54 170.1,57.4 171.6,62.6 167.1,59.6 162.6,62.6 164.1,57.4 
								159.9,54 165.2,53.8 							"/>
							<polygon class="st0" points="24.3,62.6 26.2,67.6 31.5,67.8 27.3,71.2 28.8,76.3 24.3,73.4 19.8,76.3 21.3,71.2 17.1,67.8 
								22.4,67.6 							"/>
							<polygon class="st0" points="56.2,62.6 58.1,67.6 63.4,67.8 59.2,71.2 60.7,76.3 56.2,73.4 51.7,76.3 53.2,71.2 49,67.8 
								54.3,67.6 							"/>
							<polygon class="st0" points="120,62.6 121.9,67.6 127.3,67.8 123,71.2 124.5,76.3 120,73.4 115.5,76.3 117,71.2 112.8,67.8 
								118.2,67.6 							"/>
							<polygon class="st0" points="151.9,62.6 153.8,67.6 159.2,67.8 154.9,71.2 156.4,76.3 151.9,73.4 147.4,76.3 148.9,71.2 
								144.7,67.8 150.1,67.6 							"/>
							<polygon class="st0" points="7.6,76.4 9.4,81.4 14.8,81.6 10.6,85 12,90.1 7.6,87.2 3.1,90.1 4.5,85 0.3,81.6 5.7,81.4 
															"/>
							<polygon class="st0" points="39.5,76.4 41.3,81.4 46.7,81.6 42.5,85 43.9,90.1 39.5,87.2 35,90.1 36.4,85 32.2,81.6 
								37.6,81.4 							"/>
							<polygon class="st0" points="103.3,76.4 105.1,81.4 110.5,81.6 106.3,85 107.8,90.1 103.3,87.2 98.8,90.1 100.2,85 96,81.6 
								101.4,81.4 							"/>
							<polygon class="st0" points="135.2,76.4 137.1,81.4 142.4,81.6 138.2,85 139.7,90.1 135.2,87.2 130.7,90.1 132.2,85 
								127.9,81.6 133.3,81.4 							"/>
							<polygon class="st0" points="167.1,76.4 168.9,81.4 174.3,81.6 170.1,85 171.6,90.1 167.1,87.2 162.6,90.1 164.1,85 
								159.9,81.6 165.2,81.4 							"/>
							<polygon class="st0" points="24.3,90.2 26.2,95.2 31.5,95.4 27.3,98.7 28.8,103.9 24.3,100.9 19.8,103.9 21.3,98.7 
								17.1,95.4 22.4,95.2 							"/>
							<polygon class="st0" points="56.2,90.2 58.1,95.2 63.4,95.4 59.2,98.7 60.7,103.9 56.2,100.9 51.7,103.9 53.2,98.7 49,95.4 
								54.3,95.2 							"/>
							<polygon class="st0" points="88.1,90.2 90,95.2 95.3,95.4 91.1,98.7 92.6,103.9 88.1,100.9 83.6,103.9 85.1,98.7 80.9,95.4 
								86.2,95.2 							"/>
							<polygon class="st0" points="120,90.2 121.9,95.2 127.3,95.4 123,98.7 124.5,103.9 120,100.9 115.5,103.9 117,98.7 
								112.8,95.4 118.2,95.2 							"/>
							<polygon class="st0" points="151.9,90.2 153.8,95.2 159.2,95.4 154.9,98.7 156.4,103.9 151.9,100.9 147.4,103.9 148.9,98.7 
								144.7,95.4 150.1,95.2 							"/>
							<polygon class="st0" points="7.6,103.9 9.4,109 14.8,109.2 10.6,112.5 12,117.7 7.6,114.7 3.1,117.7 4.5,112.5 0.3,109.2 
								5.7,109 							"/>
							<polygon class="st0" points="39.5,103.9 41.3,109 46.7,109.2 42.5,112.5 43.9,117.7 39.5,114.7 35,117.7 36.4,112.5 
								32.2,109.2 37.6,109 							"/>
							<polygon class="st0" points="71.4,103.9 73.2,109 78.6,109.2 74.4,112.5 75.8,117.7 71.4,114.7 66.9,117.7 68.3,112.5 
								64.1,109.2 69.5,109 							"/>
							<polygon class="st0" points="103.3,103.9 105.1,109 110.5,109.2 106.3,112.5 107.8,117.7 103.3,114.7 98.8,117.7 
								100.2,112.5 96,109.2 101.4,109 							"/>
							<polygon class="st0" points="135.2,103.9 137.1,109 142.4,109.2 138.2,112.5 139.7,117.7 135.2,114.7 130.7,117.7 
								132.2,112.5 127.9,109.2 133.3,109 							"/>
							<polygon class="st0" points="167.1,103.9 168.9,109 174.3,109.2 170.1,112.5 171.6,117.7 167.1,114.7 162.6,117.7 
								164.1,112.5 159.9,109.2 165.2,109 							"/>
							<polygon class="st0" points="24.3,117.7 26.2,122.8 31.5,123 27.3,126.3 28.8,131.5 24.3,128.5 19.8,131.5 21.3,126.3 
								17.1,123 22.4,122.8 							"/>
							<polygon class="st0" points="88.1,117.7 90,122.8 95.3,123 91.1,126.3 92.6,131.5 88.1,128.5 83.6,131.5 85.1,126.3 
								80.9,123 86.2,122.8 							"/>
							<polygon class="st0" points="120,117.7 121.9,122.8 127.3,123 123,126.3 124.5,131.5 120,128.5 115.5,131.5 117,126.3 
								112.8,123 118.2,122.8 							"/>
							<polygon class="st0" points="151.9,117.7 153.8,122.8 159.2,123 154.9,126.3 156.4,131.5 151.9,128.5 147.4,131.5 
								148.9,126.3 144.7,123 150.1,122.8 							"/>
							<polygon class="st0" points="7.6,131.5 9.4,136.6 14.8,136.8 10.6,140.1 12,145.3 7.6,142.3 3.1,145.3 4.5,140.1 0.3,136.8 
								5.7,136.6 							"/>
							<polygon class="st0" points="39.5,131.5 41.3,136.6 46.7,136.8 42.5,140.1 43.9,145.3 39.5,142.3 35,145.3 36.4,140.1 
								32.2,136.8 37.6,136.6 							"/>
							<polygon class="st0" points="71.4,131.5 73.2,136.6 78.6,136.8 74.4,140.1 75.8,145.3 71.4,142.3 66.9,145.3 68.3,140.1 
								64.1,136.8 69.5,136.6 							"/>
							<polygon class="st0" points="103.3,131.5 105.1,136.6 110.5,136.8 106.3,140.1 107.8,145.3 103.3,142.3 98.8,145.3 
								100.2,140.1 96,136.8 101.4,136.6 							"/>
							<polygon class="st0" points="135.2,131.5 137.1,136.6 142.4,136.8 138.2,140.1 139.7,145.3 135.2,142.3 130.7,145.3 
								132.2,140.1 127.9,136.8 133.3,136.6 							"/>
							<polygon class="st0" points="167.1,131.5 168.9,136.6 174.3,136.8 170.1,140.1 171.6,145.3 167.1,142.3 162.6,145.3 
								164.1,140.1 159.9,136.8 165.2,136.6 							"/>
							<polygon class="st0" points="24.3,145.3 26.2,150.3 31.5,150.6 27.3,153.9 28.8,159.1 24.3,156.1 19.8,159.1 21.3,153.9 
								17.1,150.6 22.4,150.3 							"/>
							<polygon class="st0" points="56.2,145.3 58.1,150.3 63.4,150.6 59.2,153.9 60.7,159.1 56.2,156.1 51.7,159.1 53.2,153.9 
								49,150.6 54.3,150.3 							"/>
							<polygon class="st0" points="88.1,145.3 90,150.3 95.3,150.6 91.1,153.9 92.6,159.1 88.1,156.1 83.6,159.1 85.1,153.9 
								80.9,150.6 86.2,150.3 							"/>
							<polygon class="st0" points="120,145.3 121.9,150.3 127.3,150.6 123,153.9 124.5,159.1 120,156.1 115.5,159.1 117,153.9 
								112.8,150.6 118.2,150.3 							"/>
							<polygon class="st0" points="151.9,145.3 153.8,150.3 159.2,150.6 154.9,153.9 156.4,159.1 151.9,156.1 147.4,159.1 
								148.9,153.9 144.7,150.6 150.1,150.3 							"/>
							<polygon class="st0" points="7.6,159.1 9.4,164.1 14.8,164.4 10.6,167.7 12,172.9 7.6,169.9 3.1,172.9 4.5,167.7 0.3,164.4 
								5.7,164.1 							"/>
							<polygon class="st0" points="71.4,159.1 73.2,164.1 78.6,164.4 74.4,167.7 75.8,172.9 71.4,169.9 66.9,172.9 68.3,167.7 
								64.1,164.4 69.5,164.1 							"/>
							<polygon class="st0" points="103.3,159.1 105.1,164.1 110.5,164.4 106.3,167.7 107.8,172.9 103.3,169.9 98.8,172.9 
								100.2,167.7 96,164.4 101.4,164.1 							"/>
							<polygon class="st0" points="135.2,159.1 137.1,164.1 142.4,164.4 138.2,167.7 139.7,172.9 135.2,169.9 130.7,172.9 
								132.2,167.7 127.9,164.4 133.3,164.1 							"/>
							<polygon class="st0" points="167.1,159.1 168.9,164.1 174.3,164.4 170.1,167.7 171.6,172.9 167.1,169.9 162.6,172.9 
								164.1,167.7 159.9,164.4 165.2,164.1 							"/>
						</g>
					</g>
				</g>
			</g>
		</g>
	</g>
</g>
</svg>
